<svg xmlns="http://www.w3.org/2000/svg" width="2300" height="718" viewBox="0 0 2300 718">
<defs>
<marker id="arrow" markerWidth="10" markerHeight="7" refX="9" refY="3.5" orient="auto">
<polygon points="0 0, 10 3.5, 0 7" fill="#4b5563" />
</marker>
</defs>
<rect x="0" y="0" width="2300" height="718" fill="#ffffff" />
<path d="M 108 202 C 132.0 202, 148.0 286, 172 286" fill="none" stroke="#2563eb" stroke-width="2.6" opacity="0.95" marker-end="url(#arrow)" />
<path d="M 240 286 C 264.0 286, 280.0 286, 304 286" fill="none" stroke="#2563eb" stroke-width="2.6" opacity="0.95" marker-end="url(#arrow)" />
<path d="M 240 286 C 264.0 286, 280.0 328, 304 328" fill="none" stroke="#94a3b8" stroke-width="1.4" opacity="0.85" marker-end="url(#arrow)" />
<path d="M 372 286 C 396.0 286, 412.0 265, 436 265" fill="none" stroke="#2563eb" stroke-width="2.6" opacity="0.95" marker-end="url(#arrow)" />
<path d="M 372 286 C 396.0 286, 412.0 307, 436 307" fill="none" stroke="#94a3b8" stroke-width="1.4" opacity="0.85" marker-end="url(#arrow)" />
<path d="M 372 328 C 396.0 328, 412.0 349, 436 349" fill="none" stroke="#94a3b8" stroke-width="1.4" opacity="0.85" marker-end="url(#arrow)" />
<path d="M 372 328 C 396.0 328, 412.0 433, 436 433" fill="none" stroke="#94a3b8" stroke-width="1.4" opacity="0.85" marker-end="url(#arrow)" />
<path d="M 504 349 C 528.0 349, 544.0 349, 568 349" fill="none" stroke="#94a3b8" stroke-width="1.4" opacity="0.85" marker-end="url(#arrow)" />
<path d="M 504 265 C 528.0 265, 544.0 223, 568 223" fill="none" stroke="#2563eb" stroke-width="2.6" opacity="0.95" marker-end="url(#arrow)" />
<path d="M 636 223 C 660.0 223, 676.0 139, 700 139" fill="none" stroke="#2563eb" stroke-width="2.6" opacity="0.95" marker-end="url(#arrow)" />
<path d="M 636 223 C 660.0 223, 676.0 181, 700 181" fill="none" stroke="#94a3b8" stroke-width="1.4" opacity="0.85" marker-end="url(#arrow)" />
<path d="M 504 307 C 528.0 307, 544.0 265, 568 265" fill="none" stroke="#94a3b8" stroke-width="1.4" opacity="0.85" marker-end="url(#arrow)" />
<path d="M 504 307 C 572.6 307, 631.4 307, 700 307" fill="none" stroke="#94a3b8" stroke-width="1.4" opacity="0.85" marker-end="url(#arrow)" />
<path d="M 504 307 C 528.0 307, 544.0 307, 568 307" fill="none" stroke="#94a3b8" stroke-width="1.4" opacity="0.85" marker-end="url(#arrow)" />
<path d="M 504 391 C 528.0 391, 544.0 391, 568 391" fill="none" stroke="#94a3b8" stroke-width="1.4" opacity="0.85" marker-end="url(#arrow)" />
<path d="M 504 391 C 528.0 391, 544.0 475, 568 475" fill="none" stroke="#94a3b8" stroke-width="1.4" opacity="0.85" marker-end="url(#arrow)" />
<path d="M 636 391 C 660.0 391, 676.0 475, 700 475" fill="none" stroke="#94a3b8" stroke-width="1.4" opacity="0.85" marker-end="url(#arrow)" />
<path d="M 636 391 C 660.0 391, 676.0 391, 700 391" fill="none" stroke="#94a3b8" stroke-width="1.4" opacity="0.85" marker-end="url(#arrow)" />
<path d="M 636 475 C 660.0 475, 676.0 433, 700 433" fill="none" stroke="#94a3b8" stroke-width="1.4" opacity="0.85" marker-end="url(#arrow)" />
<path d="M 636 475 C 660.0 475, 676.0 517, 700 517" fill="none" stroke="#94a3b8" stroke-width="1.4" opacity="0.85" marker-end="url(#arrow)" />
<path d="M 504 433 C 528.0 433, 544.0 433, 568 433" fill="none" stroke="#94a3b8" stroke-width="1.4" opacity="0.85" marker-end="url(#arrow)" />
<path d="M 504 433 C 849.8 433, 1146.2 391, 1492 391" fill="none" stroke="#94a3b8" stroke-width="1.4" opacity="0.85" marker-end="url(#arrow)" />
<path d="M 768 139 C 792.0 139, 808.0 97, 832 97" fill="none" stroke="#2563eb" stroke-width="2.6" opacity="0.95" marker-end="url(#arrow)" />
<path d="M 768 139 C 792.0 139, 808.0 139, 832 139" fill="none" stroke="#94a3b8" stroke-width="1.4" opacity="0.85" marker-end="url(#arrow)" />
<path d="M 768 181 C 792.0 181, 808.0 181, 832 181" fill="none" stroke="#94a3b8" stroke-width="1.4" opacity="0.85" marker-end="url(#arrow)" />
<path d="M 900 181 C 924.0 181, 940.0 139, 964 139" fill="none" stroke="#94a3b8" stroke-width="1.4" opacity="0.85" marker-end="url(#arrow)" />
<path d="M 900 181 C 924.0 181, 940.0 265, 964 265" fill="none" stroke="#94a3b8" stroke-width="1.4" opacity="0.85" marker-end="url(#arrow)" />
<path d="M 636 265 C 981.8 265, 1278.2 307, 1624 307" fill="none" stroke="#94a3b8" stroke-width="1.4" opacity="0.85" marker-end="url(#arrow)" />
<path d="M 636 307 C 660.0 307, 676.0 223, 700 223" fill="none" stroke="#94a3b8" stroke-width="1.4" opacity="0.85" marker-end="url(#arrow)" />
<path d="M 636 307 C 660.0 307, 676.0 265, 700 265" fill="none" stroke="#94a3b8" stroke-width="1.4" opacity="0.85" marker-end="url(#arrow)" />
<path d="M 108 244 C 132.0 244, 148.0 370, 172 370" fill="none" stroke="#94a3b8" stroke-width="1.4" opacity="0.85" marker-end="url(#arrow)" />
<path d="M 240 370 C 264.0 370, 280.0 370, 304 370" fill="none" stroke="#94a3b8" stroke-width="1.4" opacity="0.85" marker-end="url(#arrow)" />
<path d="M 240 370 C 264.0 370, 280.0 412, 304 412" fill="none" stroke="#94a3b8" stroke-width="1.4" opacity="0.85" marker-end="url(#arrow)" />
<path d="M 636 433 C 660.0 433, 676.0 349, 700 349" fill="none" stroke="#94a3b8" stroke-width="1.4" opacity="0.85" marker-end="url(#arrow)" />
<path d="M 636 433 C 660.0 433, 676.0 559, 700 559" fill="none" stroke="#94a3b8" stroke-width="1.4" opacity="0.85" marker-end="url(#arrow)" />
<path d="M 1560 391 C 1584.0 391, 1600.0 349, 1624 349" fill="none" stroke="#94a3b8" stroke-width="1.4" opacity="0.85" marker-end="url(#arrow)" />
<path d="M 1560 391 C 1584.0 391, 1600.0 265, 1624 265" fill="none" stroke="#94a3b8" stroke-width="1.4" opacity="0.85" marker-end="url(#arrow)" />
<path d="M 1560 391 C 1584.0 391, 1600.0 391, 1624 391" fill="none" stroke="#94a3b8" stroke-width="1.4" opacity="0.85" marker-end="url(#arrow)" />
<path d="M 1560 391 C 1584.0 391, 1600.0 433, 1624 433" fill="none" stroke="#94a3b8" stroke-width="1.4" opacity="0.85" marker-end="url(#arrow)" />
<path d="M 900 97 C 924.0 97, 940.0 55, 964 55" fill="none" stroke="#2563eb" stroke-width="2.6" opacity="0.95" marker-end="url(#arrow)" />
<path d="M 1032 55 C 1056.0 55, 1072.0 97, 1096 97" fill="none" stroke="#2563eb" stroke-width="2.6" opacity="0.95" marker-end="url(#arrow)" />
<path d="M 1032 55 C 1056.0 55, 1072.0 181, 1096 181" fill="none" stroke="#94a3b8" stroke-width="1.4" opacity="0.85" marker-end="url(#arrow)" />
<path d="M 900 139 C 924.0 139, 940.0 97, 964 97" fill="none" stroke="#94a3b8" stroke-width="1.4" opacity="0.85" marker-end="url(#arrow)" />
<path d="M 1032 139 C 1056.0 139, 1072.0 223, 1096 223" fill="none" stroke="#94a3b8" stroke-width="1.4" opacity="0.85" marker-end="url(#arrow)" />
<path d="M 1032 139 C 1056.0 139, 1072.0 307, 1096 307" fill="none" stroke="#94a3b8" stroke-width="1.4" opacity="0.85" marker-end="url(#arrow)" />
<path d="M 1032 265 C 1056.0 265, 1072.0 349, 1096 349" fill="none" stroke="#94a3b8" stroke-width="1.4" opacity="0.85" marker-end="url(#arrow)" />
<path d="M 1032 265 C 1193.0 265, 1331.0 307, 1492 307" fill="none" stroke="#94a3b8" stroke-width="1.4" opacity="0.85" marker-end="url(#arrow)" />
<path d="M 1824 370 C 1848.0 370, 1864.0 328, 1888 328" fill="none" stroke="#94a3b8" stroke-width="1.4" opacity="0.85" marker-end="url(#arrow)" />
<path d="M 1824 370 C 1848.0 370, 1864.0 370, 1888 370" fill="none" stroke="#94a3b8" stroke-width="1.4" opacity="0.85" marker-end="url(#arrow)" />
<path d="M 768 223 C 792.0 223, 808.0 265, 832 265" fill="none" stroke="#94a3b8" stroke-width="1.4" opacity="0.85" marker-end="url(#arrow)" />
<path d="M 900 265 C 924.0 265, 940.0 349, 964 349" fill="none" stroke="#94a3b8" stroke-width="1.4" opacity="0.85" marker-end="url(#arrow)" />
<path d="M 900 265 C 924.0 265, 940.0 181, 964 181" fill="none" stroke="#94a3b8" stroke-width="1.4" opacity="0.85" marker-end="url(#arrow)" />
<path d="M 768 265 C 792.0 265, 808.0 349, 832 349" fill="none" stroke="#94a3b8" stroke-width="1.4" opacity="0.85" marker-end="url(#arrow)" />
<path d="M 768 265 C 792.0 265, 808.0 307, 832 307" fill="none" stroke="#94a3b8" stroke-width="1.4" opacity="0.85" marker-end="url(#arrow)" />
<path d="M 372 370 C 396.0 370, 412.0 391, 436 391" fill="none" stroke="#94a3b8" stroke-width="1.4" opacity="0.85" marker-end="url(#arrow)" />
<path d="M 372 412 C 396.0 412, 412.0 391, 436 391" fill="none" stroke="#94a3b8" stroke-width="1.4" opacity="0.85" marker-end="url(#arrow)" />
<path d="M 768 349 C 792.0 349, 808.0 391, 832 391" fill="none" stroke="#94a3b8" stroke-width="1.4" opacity="0.85" marker-end="url(#arrow)" />
<path d="M 900 391 C 924.0 391, 940.0 433, 964 433" fill="none" stroke="#94a3b8" stroke-width="1.4" opacity="0.85" marker-end="url(#arrow)" />
<path d="M 900 391 C 924.0 391, 940.0 517, 964 517" fill="none" stroke="#94a3b8" stroke-width="1.4" opacity="0.85" marker-end="url(#arrow)" />
<path d="M 768 559 C 792.0 559, 808.0 517, 832 517" fill="none" stroke="#94a3b8" stroke-width="1.4" opacity="0.85" marker-end="url(#arrow)" />
<path d="M 768 559 C 792.0 559, 808.0 601, 832 601" fill="none" stroke="#94a3b8" stroke-width="1.4" opacity="0.85" marker-end="url(#arrow)" />
<path d="M 1164 181 C 1188.0 181, 1204.0 286, 1228 286" fill="none" stroke="#94a3b8" stroke-width="1.4" opacity="0.85" marker-end="url(#arrow)" />
<path d="M 1296 286 C 1320.0 286, 1336.0 370, 1360 370" fill="none" stroke="#94a3b8" stroke-width="1.4" opacity="0.85" marker-end="url(#arrow)" />
<path d="M 1296 286 C 1320.0 286, 1336.0 244, 1360 244" fill="none" stroke="#94a3b8" stroke-width="1.4" opacity="0.85" marker-end="url(#arrow)" />
<path d="M 1428 370 C 1452.0 370, 1468.0 391, 1492 391" fill="none" stroke="#94a3b8" stroke-width="1.4" opacity="0.85" marker-end="url(#arrow)" />
<path d="M 1428 244 C 1452.0 244, 1468.0 265, 1492 265" fill="none" stroke="#94a3b8" stroke-width="1.4" opacity="0.85" marker-end="url(#arrow)" />
<path d="M 1164 349 C 1188.0 349, 1204.0 370, 1228 370" fill="none" stroke="#94a3b8" stroke-width="1.4" opacity="0.85" marker-end="url(#arrow)" />
<path d="M 1296 370 C 1320.0 370, 1336.0 328, 1360 328" fill="none" stroke="#94a3b8" stroke-width="1.4" opacity="0.85" marker-end="url(#arrow)" />
<path d="M 1296 370 C 1320.0 370, 1336.0 412, 1360 412" fill="none" stroke="#94a3b8" stroke-width="1.4" opacity="0.85" marker-end="url(#arrow)" />
<path d="M 1296 370 C 1320.0 370, 1336.0 454, 1360 454" fill="none" stroke="#94a3b8" stroke-width="1.4" opacity="0.85" marker-end="url(#arrow)" />
<path d="M 108 286 C 132.0 286, 148.0 328, 172 328" fill="none" stroke="#94a3b8" stroke-width="1.4" opacity="0.85" marker-end="url(#arrow)" />
<path d="M 108 286 C 132.0 286, 148.0 412, 172 412" fill="none" stroke="#94a3b8" stroke-width="1.4" opacity="0.85" marker-end="url(#arrow)" />
<path d="M 1956 328 C 1980.0 328, 1996.0 328, 2020 328" fill="none" stroke="#94a3b8" stroke-width="1.4" opacity="0.85" marker-end="url(#arrow)" />
<path d="M 2088 328 C 2112.0 328, 2128.0 307, 2152 307" fill="none" stroke="#94a3b8" stroke-width="1.4" opacity="0.85" marker-end="url(#arrow)" />
<path d="M 2088 328 C 2112.0 328, 2128.0 349, 2152 349" fill="none" stroke="#94a3b8" stroke-width="1.4" opacity="0.85" marker-end="url(#arrow)" />
<path d="M 768 307 C 792.0 307, 808.0 223, 832 223" fill="none" stroke="#94a3b8" stroke-width="1.4" opacity="0.85" marker-end="url(#arrow)" />
<path d="M 768 307 C 792.0 307, 808.0 475, 832 475" fill="none" stroke="#94a3b8" stroke-width="1.4" opacity="0.85" marker-end="url(#arrow)" />
<path d="M 1956 370 C 1980.0 370, 1996.0 370, 2020 370" fill="none" stroke="#94a3b8" stroke-width="1.4" opacity="0.85" marker-end="url(#arrow)" />
<path d="M 2088 370 C 2112.0 370, 2128.0 391, 2152 391" fill="none" stroke="#94a3b8" stroke-width="1.4" opacity="0.85" marker-end="url(#arrow)" />
<path d="M 768 475 C 792.0 475, 808.0 433, 832 433" fill="none" stroke="#94a3b8" stroke-width="1.4" opacity="0.85" marker-end="url(#arrow)" />
<path d="M 768 475 C 792.0 475, 808.0 559, 832 559" fill="none" stroke="#94a3b8" stroke-width="1.4" opacity="0.85" marker-end="url(#arrow)" />
<path d="M 1032 349 C 1056.0 349, 1072.0 433, 1096 433" fill="none" stroke="#94a3b8" stroke-width="1.4" opacity="0.85" marker-end="url(#arrow)" />
<path d="M 900 433 C 924.0 433, 940.0 475, 964 475" fill="none" stroke="#94a3b8" stroke-width="1.4" opacity="0.85" marker-end="url(#arrow)" />
<path d="M 1032 475 C 1056.0 475, 1072.0 475, 1096 475" fill="none" stroke="#94a3b8" stroke-width="1.4" opacity="0.85" marker-end="url(#arrow)" />
<path d="M 1032 475 C 1056.0 475, 1072.0 601, 1096 601" fill="none" stroke="#94a3b8" stroke-width="1.4" opacity="0.85" marker-end="url(#arrow)" />
<path d="M 1164 475 C 1188.0 475, 1204.0 454, 1228 454" fill="none" stroke="#94a3b8" stroke-width="1.4" opacity="0.85" marker-end="url(#arrow)" />
<path d="M 900 349 C 924.0 349, 940.0 307, 964 307" fill="none" stroke="#94a3b8" stroke-width="1.4" opacity="0.85" marker-end="url(#arrow)" />
<path d="M 1032 181 C 1056.0 181, 1072.0 517, 1096 517" fill="none" stroke="#94a3b8" stroke-width="1.4" opacity="0.85" marker-end="url(#arrow)" />
<path d="M 1032 181 C 1056.0 181, 1072.0 139, 1096 139" fill="none" stroke="#94a3b8" stroke-width="1.4" opacity="0.85" marker-end="url(#arrow)" />
<path d="M 900 601 C 924.0 601, 940.0 643, 964 643" fill="none" stroke="#94a3b8" stroke-width="1.4" opacity="0.85" marker-end="url(#arrow)" />
<path d="M 900 601 C 924.0 601, 940.0 601, 964 601" fill="none" stroke="#94a3b8" stroke-width="1.4" opacity="0.85" marker-end="url(#arrow)" />
<path d="M 1164 139 C 1188.0 139, 1204.0 244, 1228 244" fill="none" stroke="#94a3b8" stroke-width="1.4" opacity="0.85" marker-end="url(#arrow)" />
<path d="M 1296 244 C 1320.0 244, 1336.0 286, 1360 286" fill="none" stroke="#94a3b8" stroke-width="1.4" opacity="0.85" marker-end="url(#arrow)" />
<path d="M 1428 286 C 1452.0 286, 1468.0 307, 1492 307" fill="none" stroke="#94a3b8" stroke-width="1.4" opacity="0.85" marker-end="url(#arrow)" />
<path d="M 1560 307 C 1584.0 307, 1600.0 307, 1624 307" fill="none" stroke="#94a3b8" stroke-width="1.4" opacity="0.85" marker-end="url(#arrow)" />
<path d="M 1692 307 C 1716.0 307, 1732.0 328, 1756 328" fill="none" stroke="#94a3b8" stroke-width="1.4" opacity="0.85" marker-end="url(#arrow)" />
<path d="M 1692 307 C 1716.0 307, 1732.0 370, 1756 370" fill="none" stroke="#94a3b8" stroke-width="1.4" opacity="0.85" marker-end="url(#arrow)" />
<path d="M 1428 328 C 1452.0 328, 1468.0 349, 1492 349" fill="none" stroke="#94a3b8" stroke-width="1.4" opacity="0.85" marker-end="url(#arrow)" />
<path d="M 1428 412 C 1452.0 412, 1468.0 433, 1492 433" fill="none" stroke="#94a3b8" stroke-width="1.4" opacity="0.85" marker-end="url(#arrow)" />
<path d="M 900 223 C 924.0 223, 940.0 223, 964 223" fill="none" stroke="#94a3b8" stroke-width="1.4" opacity="0.85" marker-end="url(#arrow)" />
<path d="M 1032 223 C 1056.0 223, 1072.0 265, 1096 265" fill="none" stroke="#94a3b8" stroke-width="1.4" opacity="0.85" marker-end="url(#arrow)" />
<path d="M 1032 223 C 1056.0 223, 1072.0 391, 1096 391" fill="none" stroke="#94a3b8" stroke-width="1.4" opacity="0.85" marker-end="url(#arrow)" />
<path d="M 900 475 C 924.0 475, 940.0 559, 964 559" fill="none" stroke="#94a3b8" stroke-width="1.4" opacity="0.85" marker-end="url(#arrow)" />
<path d="M 900 475 C 924.0 475, 940.0 391, 964 391" fill="none" stroke="#94a3b8" stroke-width="1.4" opacity="0.85" marker-end="url(#arrow)" />
<path d="M 1164 265 C 1188.0 265, 1204.0 328, 1228 328" fill="none" stroke="#94a3b8" stroke-width="1.4" opacity="0.85" marker-end="url(#arrow)" />
<path d="M 1164 391 C 1188.0 391, 1204.0 412, 1228 412" fill="none" stroke="#94a3b8" stroke-width="1.4" opacity="0.85" marker-end="url(#arrow)" />
<path d="M 1032 559 C 1056.0 559, 1072.0 559, 1096 559" fill="none" stroke="#94a3b8" stroke-width="1.4" opacity="0.85" marker-end="url(#arrow)" />
<path d="M 636 349 C 660.0 349, 676.0 307, 700 307" fill="none" stroke="#94a3b8" stroke-width="1.4" opacity="0.85" marker-end="url(#arrow)" />
<rect x="40" y="187" rx="8" ry="8" width="68" height="30" fill="#dbeafe" stroke="#1d4ed8" stroke-width="2" />
<text x="74.0" y="206.0" text-anchor="middle" font-family="Helvetica, Arial, sans-serif" font-size="12" fill="#0f172a">2</text>
<rect x="172" y="271" rx="8" ry="8" width="68" height="30" fill="#dbeafe" stroke="#1d4ed8" stroke-width="2" />
<text x="206.0" y="290.0" text-anchor="middle" font-family="Helvetica, Arial, sans-serif" font-size="12" fill="#0f172a">3</text>
<rect x="304" y="271" rx="8" ry="8" width="68" height="30" fill="#dbeafe" stroke="#1d4ed8" stroke-width="2" />
<text x="338.0" y="290.0" text-anchor="middle" font-family="Helvetica, Arial, sans-serif" font-size="12" fill="#0f172a">4</text>
<rect x="304" y="313" rx="8" ry="8" width="68" height="30" fill="#e2e8f0" stroke="#475569" stroke-width="1.2" />
<text x="338.0" y="332.0" text-anchor="middle" font-family="Helvetica, Arial, sans-serif" font-size="12" fill="#0f172a">5</text>
<rect x="436" y="334" rx="8" ry="8" width="68" height="30" fill="#e2e8f0" stroke="#475569" stroke-width="1.2" />
<text x="470.0" y="353.0" text-anchor="middle" font-family="Helvetica, Arial, sans-serif" font-size="12" fill="#0f172a">6</text>
<rect x="436" y="250" rx="8" ry="8" width="68" height="30" fill="#dbeafe" stroke="#1d4ed8" stroke-width="2" />
<text x="470.0" y="269.0" text-anchor="middle" font-family="Helvetica, Arial, sans-serif" font-size="12" fill="#0f172a">8</text>
<rect x="568" y="208" rx="8" ry="8" width="68" height="30" fill="#dbeafe" stroke="#1d4ed8" stroke-width="2" />
<text x="602.0" y="227.0" text-anchor="middle" font-family="Helvetica, Arial, sans-serif" font-size="12" fill="#0f172a">9</text>
<rect x="436" y="292" rx="8" ry="8" width="68" height="30" fill="#e2e8f0" stroke="#475569" stroke-width="1.2" />
<text x="470.0" y="311.0" text-anchor="middle" font-family="Helvetica, Arial, sans-serif" font-size="12" fill="#0f172a">10</text>
<rect x="436" y="376" rx="8" ry="8" width="68" height="30" fill="#e2e8f0" stroke="#475569" stroke-width="1.2" />
<text x="470.0" y="395.0" text-anchor="middle" font-family="Helvetica, Arial, sans-serif" font-size="12" fill="#0f172a">11</text>
<rect x="568" y="376" rx="8" ry="8" width="68" height="30" fill="#e2e8f0" stroke="#475569" stroke-width="1.2" />
<text x="602.0" y="395.0" text-anchor="middle" font-family="Helvetica, Arial, sans-serif" font-size="12" fill="#0f172a">12</text>
<rect x="568" y="460" rx="8" ry="8" width="68" height="30" fill="#e2e8f0" stroke="#475569" stroke-width="1.2" />
<text x="602.0" y="479.0" text-anchor="middle" font-family="Helvetica, Arial, sans-serif" font-size="12" fill="#0f172a">13</text>
<rect x="700" y="418" rx="8" ry="8" width="68" height="30" fill="#fee2e2" stroke="#b91c1c" stroke-width="1.6" />
<text x="734.0" y="437.0" text-anchor="middle" font-family="Helvetica, Arial, sans-serif" font-size="12" fill="#0f172a">14</text>
<rect x="700" y="502" rx="8" ry="8" width="68" height="30" fill="#fee2e2" stroke="#b91c1c" stroke-width="1.6" />
<text x="734.0" y="521.0" text-anchor="middle" font-family="Helvetica, Arial, sans-serif" font-size="12" fill="#0f172a">15</text>
<rect x="436" y="418" rx="8" ry="8" width="68" height="30" fill="#e2e8f0" stroke="#475569" stroke-width="1.2" />
<text x="470.0" y="437.0" text-anchor="middle" font-family="Helvetica, Arial, sans-serif" font-size="12" fill="#0f172a">16</text>
<rect x="700" y="124" rx="8" ry="8" width="68" height="30" fill="#dbeafe" stroke="#1d4ed8" stroke-width="2" />
<text x="734.0" y="143.0" text-anchor="middle" font-family="Helvetica, Arial, sans-serif" font-size="12" fill="#0f172a">17</text>
<rect x="700" y="166" rx="8" ry="8" width="68" height="30" fill="#e2e8f0" stroke="#475569" stroke-width="1.2" />
<text x="734.0" y="185.0" text-anchor="middle" font-family="Helvetica, Arial, sans-serif" font-size="12" fill="#0f172a">18</text>
<rect x="832" y="166" rx="8" ry="8" width="68" height="30" fill="#e2e8f0" stroke="#475569" stroke-width="1.2" />
<text x="866.0" y="185.0" text-anchor="middle" font-family="Helvetica, Arial, sans-serif" font-size="12" fill="#0f172a">19</text>
<rect x="568" y="250" rx="8" ry="8" width="68" height="30" fill="#e2e8f0" stroke="#475569" stroke-width="1.2" />
<text x="602.0" y="269.0" text-anchor="middle" font-family="Helvetica, Arial, sans-serif" font-size="12" fill="#0f172a">20</text>
<rect x="568" y="292" rx="8" ry="8" width="68" height="30" fill="#e2e8f0" stroke="#475569" stroke-width="1.2" />
<text x="602.0" y="311.0" text-anchor="middle" font-family="Helvetica, Arial, sans-serif" font-size="12" fill="#0f172a">21</text>
<rect x="40" y="229" rx="8" ry="8" width="68" height="30" fill="#e2e8f0" stroke="#475569" stroke-width="1.2" />
<text x="74.0" y="248.0" text-anchor="middle" font-family="Helvetica, Arial, sans-serif" font-size="12" fill="#0f172a">22</text>
<rect x="172" y="355" rx="8" ry="8" width="68" height="30" fill="#e2e8f0" stroke="#475569" stroke-width="1.2" />
<text x="206.0" y="374.0" text-anchor="middle" font-family="Helvetica, Arial, sans-serif" font-size="12" fill="#0f172a">23</text>
<rect x="568" y="418" rx="8" ry="8" width="68" height="30" fill="#e2e8f0" stroke="#475569" stroke-width="1.2" />
<text x="602.0" y="437.0" text-anchor="middle" font-family="Helvetica, Arial, sans-serif" font-size="12" fill="#0f172a">24</text>
<rect x="1492" y="376" rx="8" ry="8" width="68" height="30" fill="#e2e8f0" stroke="#475569" stroke-width="1.2" />
<text x="1526.0" y="395.0" text-anchor="middle" font-family="Helvetica, Arial, sans-serif" font-size="12" fill="#0f172a">25</text>
<rect x="832" y="82" rx="8" ry="8" width="68" height="30" fill="#dbeafe" stroke="#1d4ed8" stroke-width="2" />
<text x="866.0" y="101.0" text-anchor="middle" font-family="Helvetica, Arial, sans-serif" font-size="12" fill="#0f172a">26</text>
<rect x="964" y="40" rx="8" ry="8" width="68" height="30" fill="#dbeafe" stroke="#1d4ed8" stroke-width="2" />
<text x="998.0" y="59.0" text-anchor="middle" font-family="Helvetica, Arial, sans-serif" font-size="12" fill="#0f172a">27</text>
<rect x="832" y="124" rx="8" ry="8" width="68" height="30" fill="#e2e8f0" stroke="#475569" stroke-width="1.2" />
<text x="866.0" y="143.0" text-anchor="middle" font-family="Helvetica, Arial, sans-serif" font-size="12" fill="#0f172a">28</text>
<rect x="964" y="124" rx="8" ry="8" width="68" height="30" fill="#e2e8f0" stroke="#475569" stroke-width="1.2" />
<text x="998.0" y="143.0" text-anchor="middle" font-family="Helvetica, Arial, sans-serif" font-size="12" fill="#0f172a">29</text>
<rect x="964" y="250" rx="8" ry="8" width="68" height="30" fill="#e2e8f0" stroke="#475569" stroke-width="1.2" />
<text x="998.0" y="269.0" text-anchor="middle" font-family="Helvetica, Arial, sans-serif" font-size="12" fill="#0f172a">30</text>
<rect x="1756" y="313" rx="8" ry="8" width="68" height="30" fill="#fee2e2" stroke="#b91c1c" stroke-width="1.6" />
<text x="1790.0" y="332.0" text-anchor="middle" font-family="Helvetica, Arial, sans-serif" font-size="12" fill="#0f172a">31</text>
<rect x="1756" y="355" rx="8" ry="8" width="68" height="30" fill="#e2e8f0" stroke="#475569" stroke-width="1.2" />
<text x="1790.0" y="374.0" text-anchor="middle" font-family="Helvetica, Arial, sans-serif" font-size="12" fill="#0f172a">32</text>
<rect x="700" y="208" rx="8" ry="8" width="68" height="30" fill="#e2e8f0" stroke="#475569" stroke-width="1.2" />
<text x="734.0" y="227.0" text-anchor="middle" font-family="Helvetica, Arial, sans-serif" font-size="12" fill="#0f172a">33</text>
<rect x="832" y="250" rx="8" ry="8" width="68" height="30" fill="#e2e8f0" stroke="#475569" stroke-width="1.2" />
<text x="866.0" y="269.0" text-anchor="middle" font-family="Helvetica, Arial, sans-serif" font-size="12" fill="#0f172a">34</text>
<rect x="700" y="250" rx="8" ry="8" width="68" height="30" fill="#e2e8f0" stroke="#475569" stroke-width="1.2" />
<text x="734.0" y="269.0" text-anchor="middle" font-family="Helvetica, Arial, sans-serif" font-size="12" fill="#0f172a">35</text>
<rect x="304" y="355" rx="8" ry="8" width="68" height="30" fill="#e2e8f0" stroke="#475569" stroke-width="1.2" />
<text x="338.0" y="374.0" text-anchor="middle" font-family="Helvetica, Arial, sans-serif" font-size="12" fill="#0f172a">36</text>
<rect x="304" y="397" rx="8" ry="8" width="68" height="30" fill="#e2e8f0" stroke="#475569" stroke-width="1.2" />
<text x="338.0" y="416.0" text-anchor="middle" font-family="Helvetica, Arial, sans-serif" font-size="12" fill="#0f172a">37</text>
<rect x="700" y="334" rx="8" ry="8" width="68" height="30" fill="#e2e8f0" stroke="#475569" stroke-width="1.2" />
<text x="734.0" y="353.0" text-anchor="middle" font-family="Helvetica, Arial, sans-serif" font-size="12" fill="#0f172a">38</text>
<rect x="832" y="376" rx="8" ry="8" width="68" height="30" fill="#e2e8f0" stroke="#475569" stroke-width="1.2" />
<text x="866.0" y="395.0" text-anchor="middle" font-family="Helvetica, Arial, sans-serif" font-size="12" fill="#0f172a">39</text>
<rect x="700" y="544" rx="8" ry="8" width="68" height="30" fill="#e2e8f0" stroke="#475569" stroke-width="1.2" />
<text x="734.0" y="563.0" text-anchor="middle" font-family="Helvetica, Arial, sans-serif" font-size="12" fill="#0f172a">40</text>
<rect x="1624" y="250" rx="8" ry="8" width="68" height="30" fill="#fee2e2" stroke="#b91c1c" stroke-width="1.6" />
<text x="1658.0" y="269.0" text-anchor="middle" font-family="Helvetica, Arial, sans-serif" font-size="12" fill="#0f172a">41</text>
<rect x="1624" y="334" rx="8" ry="8" width="68" height="30" fill="#fee2e2" stroke="#b91c1c" stroke-width="1.6" />
<text x="1658.0" y="353.0" text-anchor="middle" font-family="Helvetica, Arial, sans-serif" font-size="12" fill="#0f172a">43</text>
<rect x="1624" y="376" rx="8" ry="8" width="68" height="30" fill="#fee2e2" stroke="#b91c1c" stroke-width="1.6" />
<text x="1658.0" y="395.0" text-anchor="middle" font-family="Helvetica, Arial, sans-serif" font-size="12" fill="#0f172a">44</text>
<rect x="1624" y="418" rx="8" ry="8" width="68" height="30" fill="#fee2e2" stroke="#b91c1c" stroke-width="1.6" />
<text x="1658.0" y="437.0" text-anchor="middle" font-family="Helvetica, Arial, sans-serif" font-size="12" fill="#0f172a">45</text>
<rect x="1096" y="82" rx="8" ry="8" width="68" height="30" fill="#dbeafe" stroke="#1d4ed8" stroke-width="2" />
<text x="1130.0" y="101.0" text-anchor="middle" font-family="Helvetica, Arial, sans-serif" font-size="12" fill="#0f172a">46</text>
<rect x="1096" y="166" rx="8" ry="8" width="68" height="30" fill="#e2e8f0" stroke="#475569" stroke-width="1.2" />
<text x="1130.0" y="185.0" text-anchor="middle" font-family="Helvetica, Arial, sans-serif" font-size="12" fill="#0f172a">47</text>
<rect x="1228" y="271" rx="8" ry="8" width="68" height="30" fill="#e2e8f0" stroke="#475569" stroke-width="1.2" />
<text x="1262.0" y="290.0" text-anchor="middle" font-family="Helvetica, Arial, sans-serif" font-size="12" fill="#0f172a">48</text>
<rect x="1360" y="355" rx="8" ry="8" width="68" height="30" fill="#e2e8f0" stroke="#475569" stroke-width="1.2" />
<text x="1394.0" y="374.0" text-anchor="middle" font-family="Helvetica, Arial, sans-serif" font-size="12" fill="#0f172a">49</text>
<rect x="1360" y="229" rx="8" ry="8" width="68" height="30" fill="#e2e8f0" stroke="#475569" stroke-width="1.2" />
<text x="1394.0" y="248.0" text-anchor="middle" font-family="Helvetica, Arial, sans-serif" font-size="12" fill="#0f172a">50</text>
<rect x="964" y="82" rx="8" ry="8" width="68" height="30" fill="#fee2e2" stroke="#b91c1c" stroke-width="1.6" />
<text x="998.0" y="101.0" text-anchor="middle" font-family="Helvetica, Arial, sans-serif" font-size="12" fill="#0f172a">51</text>
<rect x="1096" y="208" rx="8" ry="8" width="68" height="30" fill="#fee2e2" stroke="#b91c1c" stroke-width="1.6" />
<text x="1130.0" y="227.0" text-anchor="middle" font-family="Helvetica, Arial, sans-serif" font-size="12" fill="#0f172a">52</text>
<rect x="1096" y="292" rx="8" ry="8" width="68" height="30" fill="#fee2e2" stroke="#b91c1c" stroke-width="1.6" />
<text x="1130.0" y="311.0" text-anchor="middle" font-family="Helvetica, Arial, sans-serif" font-size="12" fill="#0f172a">53</text>
<rect x="1096" y="334" rx="8" ry="8" width="68" height="30" fill="#e2e8f0" stroke="#475569" stroke-width="1.2" />
<text x="1130.0" y="353.0" text-anchor="middle" font-family="Helvetica, Arial, sans-serif" font-size="12" fill="#0f172a">54</text>
<rect x="1228" y="355" rx="8" ry="8" width="68" height="30" fill="#e2e8f0" stroke="#475569" stroke-width="1.2" />
<text x="1262.0" y="374.0" text-anchor="middle" font-family="Helvetica, Arial, sans-serif" font-size="12" fill="#0f172a">55</text>
<rect x="40" y="271" rx="8" ry="8" width="68" height="30" fill="#e2e8f0" stroke="#475569" stroke-width="1.2" />
<text x="74.0" y="290.0" text-anchor="middle" font-family="Helvetica, Arial, sans-serif" font-size="12" fill="#0f172a">56</text>
<rect x="172" y="313" rx="8" ry="8" width="68" height="30" fill="#fee2e2" stroke="#b91c1c" stroke-width="1.6" />
<text x="206.0" y="332.0" text-anchor="middle" font-family="Helvetica, Arial, sans-serif" font-size="12" fill="#0f172a">57</text>
<rect x="1888" y="313" rx="8" ry="8" width="68" height="30" fill="#e2e8f0" stroke="#475569" stroke-width="1.2" />
<text x="1922.0" y="332.0" text-anchor="middle" font-family="Helvetica, Arial, sans-serif" font-size="12" fill="#0f172a">58</text>
<rect x="2020" y="313" rx="8" ry="8" width="68" height="30" fill="#e2e8f0" stroke="#475569" stroke-width="1.2" />
<text x="2054.0" y="332.0" text-anchor="middle" font-family="Helvetica, Arial, sans-serif" font-size="12" fill="#0f172a">59</text>
<rect x="172" y="397" rx="8" ry="8" width="68" height="30" fill="#fee2e2" stroke="#b91c1c" stroke-width="1.6" />
<text x="206.0" y="416.0" text-anchor="middle" font-family="Helvetica, Arial, sans-serif" font-size="12" fill="#0f172a">60</text>
<rect x="700" y="292" rx="8" ry="8" width="68" height="30" fill="#e2e8f0" stroke="#475569" stroke-width="1.2" />
<text x="734.0" y="311.0" text-anchor="middle" font-family="Helvetica, Arial, sans-serif" font-size="12" fill="#0f172a">61</text>
<rect x="2152" y="292" rx="8" ry="8" width="68" height="30" fill="#fee2e2" stroke="#b91c1c" stroke-width="1.6" />
<text x="2186.0" y="311.0" text-anchor="middle" font-family="Helvetica, Arial, sans-serif" font-size="12" fill="#0f172a">62</text>
<rect x="2152" y="334" rx="8" ry="8" width="68" height="30" fill="#fee2e2" stroke="#b91c1c" stroke-width="1.6" />
<text x="2186.0" y="353.0" text-anchor="middle" font-family="Helvetica, Arial, sans-serif" font-size="12" fill="#0f172a">63</text>
<rect x="1888" y="355" rx="8" ry="8" width="68" height="30" fill="#e2e8f0" stroke="#475569" stroke-width="1.2" />
<text x="1922.0" y="374.0" text-anchor="middle" font-family="Helvetica, Arial, sans-serif" font-size="12" fill="#0f172a">64</text>
<rect x="2020" y="355" rx="8" ry="8" width="68" height="30" fill="#e2e8f0" stroke="#475569" stroke-width="1.2" />
<text x="2054.0" y="374.0" text-anchor="middle" font-family="Helvetica, Arial, sans-serif" font-size="12" fill="#0f172a">65</text>
<rect x="700" y="460" rx="8" ry="8" width="68" height="30" fill="#e2e8f0" stroke="#475569" stroke-width="1.2" />
<text x="734.0" y="479.0" text-anchor="middle" font-family="Helvetica, Arial, sans-serif" font-size="12" fill="#0f172a">66</text>
<rect x="964" y="334" rx="8" ry="8" width="68" height="30" fill="#e2e8f0" stroke="#475569" stroke-width="1.2" />
<text x="998.0" y="353.0" text-anchor="middle" font-family="Helvetica, Arial, sans-serif" font-size="12" fill="#0f172a">68</text>
<rect x="1096" y="418" rx="8" ry="8" width="68" height="30" fill="#fee2e2" stroke="#b91c1c" stroke-width="1.6" />
<text x="1130.0" y="437.0" text-anchor="middle" font-family="Helvetica, Arial, sans-serif" font-size="12" fill="#0f172a">69</text>
<rect x="832" y="418" rx="8" ry="8" width="68" height="30" fill="#e2e8f0" stroke="#475569" stroke-width="1.2" />
<text x="866.0" y="437.0" text-anchor="middle" font-family="Helvetica, Arial, sans-serif" font-size="12" fill="#0f172a">70</text>
<rect x="964" y="460" rx="8" ry="8" width="68" height="30" fill="#e2e8f0" stroke="#475569" stroke-width="1.2" />
<text x="998.0" y="479.0" text-anchor="middle" font-family="Helvetica, Arial, sans-serif" font-size="12" fill="#0f172a">71</text>
<rect x="1096" y="460" rx="8" ry="8" width="68" height="30" fill="#e2e8f0" stroke="#475569" stroke-width="1.2" />
<text x="1130.0" y="479.0" text-anchor="middle" font-family="Helvetica, Arial, sans-serif" font-size="12" fill="#0f172a">72</text>
<rect x="1228" y="439" rx="8" ry="8" width="68" height="30" fill="#fee2e2" stroke="#b91c1c" stroke-width="1.6" />
<text x="1262.0" y="458.0" text-anchor="middle" font-family="Helvetica, Arial, sans-serif" font-size="12" fill="#0f172a">73</text>
<rect x="832" y="544" rx="8" ry="8" width="68" height="30" fill="#fee2e2" stroke="#b91c1c" stroke-width="1.6" />
<text x="866.0" y="563.0" text-anchor="middle" font-family="Helvetica, Arial, sans-serif" font-size="12" fill="#0f172a">74</text>
<rect x="832" y="334" rx="8" ry="8" width="68" height="30" fill="#e2e8f0" stroke="#475569" stroke-width="1.2" />
<text x="866.0" y="353.0" text-anchor="middle" font-family="Helvetica, Arial, sans-serif" font-size="12" fill="#0f172a">76</text>
<rect x="964" y="292" rx="8" ry="8" width="68" height="30" fill="#fee2e2" stroke="#b91c1c" stroke-width="1.6" />
<text x="998.0" y="311.0" text-anchor="middle" font-family="Helvetica, Arial, sans-serif" font-size="12" fill="#0f172a">77</text>
<rect x="700" y="376" rx="8" ry="8" width="68" height="30" fill="#fee2e2" stroke="#b91c1c" stroke-width="1.6" />
<text x="734.0" y="395.0" text-anchor="middle" font-family="Helvetica, Arial, sans-serif" font-size="12" fill="#0f172a">78</text>
<rect x="964" y="166" rx="8" ry="8" width="68" height="30" fill="#e2e8f0" stroke="#475569" stroke-width="1.2" />
<text x="998.0" y="185.0" text-anchor="middle" font-family="Helvetica, Arial, sans-serif" font-size="12" fill="#0f172a">79</text>
<rect x="832" y="292" rx="8" ry="8" width="68" height="30" fill="#fee2e2" stroke="#b91c1c" stroke-width="1.6" />
<text x="866.0" y="311.0" text-anchor="middle" font-family="Helvetica, Arial, sans-serif" font-size="12" fill="#0f172a">80</text>
<rect x="1492" y="250" rx="8" ry="8" width="68" height="30" fill="#fee2e2" stroke="#b91c1c" stroke-width="1.6" />
<text x="1526.0" y="269.0" text-anchor="middle" font-family="Helvetica, Arial, sans-serif" font-size="12" fill="#0f172a">81</text>
<rect x="964" y="418" rx="8" ry="8" width="68" height="30" fill="#fee2e2" stroke="#b91c1c" stroke-width="1.6" />
<text x="998.0" y="437.0" text-anchor="middle" font-family="Helvetica, Arial, sans-serif" font-size="12" fill="#0f172a">82</text>
<rect x="832" y="586" rx="8" ry="8" width="68" height="30" fill="#e2e8f0" stroke="#475569" stroke-width="1.2" />
<text x="866.0" y="605.0" text-anchor="middle" font-family="Helvetica, Arial, sans-serif" font-size="12" fill="#0f172a">83</text>
<rect x="964" y="586" rx="8" ry="8" width="68" height="30" fill="#fee2e2" stroke="#b91c1c" stroke-width="1.6" />
<text x="998.0" y="605.0" text-anchor="middle" font-family="Helvetica, Arial, sans-serif" font-size="12" fill="#0f172a">84</text>
<rect x="964" y="628" rx="8" ry="8" width="68" height="30" fill="#fee2e2" stroke="#b91c1c" stroke-width="1.6" />
<text x="998.0" y="647.0" text-anchor="middle" font-family="Helvetica, Arial, sans-serif" font-size="12" fill="#0f172a">85</text>
<rect x="1096" y="502" rx="8" ry="8" width="68" height="30" fill="#fee2e2" stroke="#b91c1c" stroke-width="1.6" />
<text x="1130.0" y="521.0" text-anchor="middle" font-family="Helvetica, Arial, sans-serif" font-size="12" fill="#0f172a">86</text>
<rect x="964" y="502" rx="8" ry="8" width="68" height="30" fill="#fee2e2" stroke="#b91c1c" stroke-width="1.6" />
<text x="998.0" y="521.0" text-anchor="middle" font-family="Helvetica, Arial, sans-serif" font-size="12" fill="#0f172a">87</text>
<rect x="1096" y="124" rx="8" ry="8" width="68" height="30" fill="#e2e8f0" stroke="#475569" stroke-width="1.2" />
<text x="1130.0" y="143.0" text-anchor="middle" font-family="Helvetica, Arial, sans-serif" font-size="12" fill="#0f172a">88</text>
<rect x="1228" y="229" rx="8" ry="8" width="68" height="30" fill="#e2e8f0" stroke="#475569" stroke-width="1.2" />
<text x="1262.0" y="248.0" text-anchor="middle" font-family="Helvetica, Arial, sans-serif" font-size="12" fill="#0f172a">89</text>
<rect x="40" y="313" rx="8" ry="8" width="68" height="30" fill="#fee2e2" stroke="#b91c1c" stroke-width="1.6" />
<text x="74.0" y="332.0" text-anchor="middle" font-family="Helvetica, Arial, sans-serif" font-size="12" fill="#0f172a">90</text>
<rect x="1360" y="271" rx="8" ry="8" width="68" height="30" fill="#e2e8f0" stroke="#475569" stroke-width="1.2" />
<text x="1394.0" y="290.0" text-anchor="middle" font-family="Helvetica, Arial, sans-serif" font-size="12" fill="#0f172a">91</text>
<rect x="1492" y="292" rx="8" ry="8" width="68" height="30" fill="#e2e8f0" stroke="#475569" stroke-width="1.2" />
<text x="1526.0" y="311.0" text-anchor="middle" font-family="Helvetica, Arial, sans-serif" font-size="12" fill="#0f172a">92</text>
<rect x="1624" y="292" rx="8" ry="8" width="68" height="30" fill="#e2e8f0" stroke="#475569" stroke-width="1.2" />
<text x="1658.0" y="311.0" text-anchor="middle" font-family="Helvetica, Arial, sans-serif" font-size="12" fill="#0f172a">93</text>
<rect x="1360" y="313" rx="8" ry="8" width="68" height="30" fill="#e2e8f0" stroke="#475569" stroke-width="1.2" />
<text x="1394.0" y="332.0" text-anchor="middle" font-family="Helvetica, Arial, sans-serif" font-size="12" fill="#0f172a">94</text>
<rect x="1492" y="334" rx="8" ry="8" width="68" height="30" fill="#fee2e2" stroke="#b91c1c" stroke-width="1.6" />
<text x="1526.0" y="353.0" text-anchor="middle" font-family="Helvetica, Arial, sans-serif" font-size="12" fill="#0f172a">96</text>
<rect x="40" y="355" rx="8" ry="8" width="68" height="30" fill="#fee2e2" stroke="#b91c1c" stroke-width="1.6" />
<text x="74.0" y="374.0" text-anchor="middle" font-family="Helvetica, Arial, sans-serif" font-size="12" fill="#0f172a">97</text>
<rect x="1360" y="397" rx="8" ry="8" width="68" height="30" fill="#e2e8f0" stroke="#475569" stroke-width="1.2" />
<text x="1394.0" y="416.0" text-anchor="middle" font-family="Helvetica, Arial, sans-serif" font-size="12" fill="#0f172a">98</text>
<rect x="1492" y="418" rx="8" ry="8" width="68" height="30" fill="#fee2e2" stroke="#b91c1c" stroke-width="1.6" />
<text x="1526.0" y="437.0" text-anchor="middle" font-family="Helvetica, Arial, sans-serif" font-size="12" fill="#0f172a">99</text>
<rect x="40" y="397" rx="8" ry="8" width="68" height="30" fill="#fee2e2" stroke="#b91c1c" stroke-width="1.6" />
<text x="74.0" y="416.0" text-anchor="middle" font-family="Helvetica, Arial, sans-serif" font-size="12" fill="#0f172a">100</text>
<rect x="1360" y="439" rx="8" ry="8" width="68" height="30" fill="#fee2e2" stroke="#b91c1c" stroke-width="1.6" />
<text x="1394.0" y="458.0" text-anchor="middle" font-family="Helvetica, Arial, sans-serif" font-size="12" fill="#0f172a">101</text>
<rect x="2152" y="376" rx="8" ry="8" width="68" height="30" fill="#fee2e2" stroke="#b91c1c" stroke-width="1.6" />
<text x="2186.0" y="395.0" text-anchor="middle" font-family="Helvetica, Arial, sans-serif" font-size="12" fill="#0f172a">102</text>
<rect x="1096" y="586" rx="8" ry="8" width="68" height="30" fill="#fee2e2" stroke="#b91c1c" stroke-width="1.6" />
<text x="1130.0" y="605.0" text-anchor="middle" font-family="Helvetica, Arial, sans-serif" font-size="12" fill="#0f172a">103</text>
<rect x="832" y="208" rx="8" ry="8" width="68" height="30" fill="#e2e8f0" stroke="#475569" stroke-width="1.2" />
<text x="866.0" y="227.0" text-anchor="middle" font-family="Helvetica, Arial, sans-serif" font-size="12" fill="#0f172a">104</text>
<rect x="964" y="208" rx="8" ry="8" width="68" height="30" fill="#e2e8f0" stroke="#475569" stroke-width="1.2" />
<text x="998.0" y="227.0" text-anchor="middle" font-family="Helvetica, Arial, sans-serif" font-size="12" fill="#0f172a">105</text>
<rect x="832" y="460" rx="8" ry="8" width="68" height="30" fill="#e2e8f0" stroke="#475569" stroke-width="1.2" />
<text x="866.0" y="479.0" text-anchor="middle" font-family="Helvetica, Arial, sans-serif" font-size="12" fill="#0f172a">106</text>
<rect x="1096" y="250" rx="8" ry="8" width="68" height="30" fill="#e2e8f0" stroke="#475569" stroke-width="1.2" />
<text x="1130.0" y="269.0" text-anchor="middle" font-family="Helvetica, Arial, sans-serif" font-size="12" fill="#0f172a">107</text>
<rect x="1228" y="313" rx="8" ry="8" width="68" height="30" fill="#fee2e2" stroke="#b91c1c" stroke-width="1.6" />
<text x="1262.0" y="332.0" text-anchor="middle" font-family="Helvetica, Arial, sans-serif" font-size="12" fill="#0f172a">108</text>
<rect x="1096" y="376" rx="8" ry="8" width="68" height="30" fill="#e2e8f0" stroke="#475569" stroke-width="1.2" />
<text x="1130.0" y="395.0" text-anchor="middle" font-family="Helvetica, Arial, sans-serif" font-size="12" fill="#0f172a">109</text>
<rect x="1228" y="397" rx="8" ry="8" width="68" height="30" fill="#fee2e2" stroke="#b91c1c" stroke-width="1.6" />
<text x="1262.0" y="416.0" text-anchor="middle" font-family="Helvetica, Arial, sans-serif" font-size="12" fill="#0f172a">110</text>
<rect x="964" y="544" rx="8" ry="8" width="68" height="30" fill="#e2e8f0" stroke="#475569" stroke-width="1.2" />
<text x="998.0" y="563.0" text-anchor="middle" font-family="Helvetica, Arial, sans-serif" font-size="12" fill="#0f172a">111</text>
<rect x="1096" y="544" rx="8" ry="8" width="68" height="30" fill="#fee2e2" stroke="#b91c1c" stroke-width="1.6" />
<text x="1130.0" y="563.0" text-anchor="middle" font-family="Helvetica, Arial, sans-serif" font-size="12" fill="#0f172a">112</text>
<rect x="964" y="376" rx="8" ry="8" width="68" height="30" fill="#fee2e2" stroke="#b91c1c" stroke-width="1.6" />
<text x="998.0" y="395.0" text-anchor="middle" font-family="Helvetica, Arial, sans-serif" font-size="12" fill="#0f172a">113</text>
<rect x="568" y="334" rx="8" ry="8" width="68" height="30" fill="#e2e8f0" stroke="#475569" stroke-width="1.2" />
<text x="602.0" y="353.0" text-anchor="middle" font-family="Helvetica, Arial, sans-serif" font-size="12" fill="#0f172a">114</text>
<rect x="832" y="502" rx="8" ry="8" width="68" height="30" fill="#fee2e2" stroke="#b91c1c" stroke-width="1.6" />
<text x="866.0" y="521.0" text-anchor="middle" font-family="Helvetica, Arial, sans-serif" font-size="12" fill="#0f172a">115</text>
<rect x="40" y="439" rx="8" ry="8" width="68" height="30" fill="#fee2e2" stroke="#b91c1c" stroke-width="1.6" />
<text x="74.0" y="458.0" text-anchor="middle" font-family="Helvetica, Arial, sans-serif" font-size="12" fill="#0f172a">117</text>
<rect x="40" y="481" rx="8" ry="8" width="68" height="30" fill="#fee2e2" stroke="#b91c1c" stroke-width="1.6" />
<text x="74.0" y="500.0" text-anchor="middle" font-family="Helvetica, Arial, sans-serif" font-size="12" fill="#0f172a">119</text>
</svg>
